# xmcd
#
# Track frame offsets:
#	150
#	26358
#	48659
#	68580
#	74627
#	92713
#	105313
#	119373
#	141924
#	159752
#	187164
#	202378
#	223132
#	242441
#	266474
#
# Disc length: 3822 seconds
#
# Revision: 2
# Processed by: cddbd v1.5.2PL0 Copyright (c) Steve Scherf et al.
# Submitted via: audiograbber 1.83.01
#
DISCID=de0eec0f
DTITLE=Bonobo - The North Borders Tour - Live
DYEAR=2014
DGENRE=Electronic
TTITLE0=Cirrus [live]
TTITLE1=Stay The Same [live featuring Andreya Triana]
TTITLE2=Heaven For The Sinner [live featuring Szjerdene]
TTITLE3=Prelude [live]
TTITLE4=Kiara [live]
TTITLE5=Ten Tigers [live]
TTITLE6=Kong [live]
TTITLE7=Ketto [live]
TTITLE8=Emkay [live]
TTITLE9=Towers [live featuring Szjerdene]
TTITLE10=Recurring [live]
TTITLE11=We Could Forever [live]
TTITLE12=Transits [live featuring Szjerdene]
TTITLE13=Know You [live]
TTITLE14=Pieces [live featuring Cornelia]
EXTD=
EXTT0=
EXTT1=
EXTT2=
EXTT3=
EXTT4=
EXTT5=
EXTT6=
EXTT7=
EXTT8=
EXTT9=
EXTT10=
EXTT11=
EXTT12=
EXTT13=
EXTT14=
PLAYORDER=
